<?xml version="1.0" encoding="UTF-8" standalone="no"?>
<!-- Created with Inkscape (http://www.inkscape.org/) -->

<svg
   xmlns:dc="http://purl.org/dc/elements/1.1/"
   xmlns:cc="http://creativecommons.org/ns#"
   xmlns:rdf="http://www.w3.org/1999/02/22-rdf-syntax-ns#"
   xmlns:svg="http://www.w3.org/2000/svg"
   xmlns="http://www.w3.org/2000/svg"
   xmlns:sodipodi="http://sodipodi.sourceforge.net/DTD/sodipodi-0.dtd"
   xmlns:inkscape="http://www.inkscape.org/namespaces/inkscape"
   width="32"
   height="64"
   id="svg2"
   version="1.1"
   inkscape:version="0.48.4 r9939"
   sodipodi:docname="New document 1">
  <defs
     id="defs4" />
  <sodipodi:namedview
     id="base"
     pagecolor="#ffffff"
     bordercolor="#666666"
     borderopacity="1.0"
     inkscape:pageopacity="0.0"
     inkscape:pageshadow="2"
     inkscape:zoom="7.9195959"
     inkscape:cx="30.239947"
     inkscape:cy="33.003088"
     inkscape:document-units="px"
     inkscape:current-layer="layer1"
     showgrid="false"
     inkscape:window-width="1600"
     inkscape:window-height="837"
     inkscape:window-x="-8"
     inkscape:window-y="-8"
     inkscape:window-maximized="1" />
  <metadata
     id="metadata7">
    <rdf:RDF>
      <cc:Work
         rdf:about="">
        <dc:format>image/svg+xml</dc:format>
        <dc:type
           rdf:resource="http://purl.org/dc/dcmitype/StillImage" />
        <dc:title></dc:title>
      </cc:Work>
    </rdf:RDF>
  </metadata>
  <g
     inkscape:label="Layer 1"
     inkscape:groupmode="layer"
     id="layer1"
     transform="translate(0,-988.36218)">
    <path
       style="fill:#e19e00;fill-opacity:1;fill-rule:evenodd;stroke:#000000;stroke-width:1;stroke-linecap:round;stroke-miterlimit:0;stroke-opacity:1"
       d="m 12.678572,1017.3622 c 0.446128,-0.5673 1.168211,-0.5693 1.95848,-0.4255 0.748684,0.1362 -1.699644,-3.0879 2.466579,-2.7312 2.411014,0.2064 1.530001,2.8437 2.342353,2.6872 0.812352,-0.1565 1.534078,-0.1565 1.893302,0.4695 3.729147,6.4983 0.0713,7.7098 -0.446428,11.6964 -0.21292,1.6395 -0.131732,0.2966 -1.007524,3.6454 -0.345983,1.323 -1.343667,1.7118 -2.787119,1.7118 -1.443452,0 -4.225353,-0.3555 -4.419643,-1.7858 -0.353239,-2.6005 1.728481,-1.8111 2.5,-3.0357 2.220205,-3.524 -5.074599,-8.9581 -2.5,-12.2321 z"
       id="rect2989"
       inkscape:connector-curvature="0"
       sodipodi:nodetypes="sssssssssss"
       inkscape:export-filename="C:\Users\neosam\Documents\programming\ld30prepare\other-files\hero-sprites\torso.png"
       inkscape:export-xdpi="300"
       inkscape:export-ydpi="300" />
    <path
       sodipodi:type="arc"
       style="fill:#e19e00;fill-opacity:1;fill-rule:evenodd;stroke:#000000;stroke-width:1;stroke-linecap:round;stroke-miterlimit:0;stroke-opacity:1;stroke-dasharray:none"
       id="path2985"
       sodipodi:cx="12.946428"
       sodipodi:cy="13.017857"
       sodipodi:rx="12.410714"
       sodipodi:ry="12.410714"
       d="m 25.357142,13.017857 a 12.410714,12.410714 0 1 1 -24.82142785,0 12.410714,12.410714 0 1 1 24.82142785,0 z"
       transform="translate(3.5714287,989.39029)"
       inkscape:export-filename="C:\Users\neosam\Documents\programming\ld30prepare\other-files\hero-sprites\side\head.png"
       inkscape:export-xdpi="300"
       inkscape:export-ydpi="300" />
    <path
       sodipodi:type="arc"
       style="fill:#ffffff;fill-opacity:1;fill-rule:evenodd;stroke:#000000;stroke-width:1;stroke-linecap:round;stroke-miterlimit:0;stroke-opacity:1;stroke-dasharray:none"
       id="path2992"
       sodipodi:cx="-20.9375"
       sodipodi:cy="25.116072"
       sodipodi:rx="4.1517859"
       sodipodi:ry="4.1517859"
       d="m -16.785714,25.116072 a 4.1517859,4.1517859 0 1 1 -8.303572,0 4.1517859,4.1517859 0 1 1 8.303572,0 z"
       transform="translate(43.850436,979.49751)"
       inkscape:export-filename="C:\Users\neosam\Documents\programming\ld30prepare\other-files\hero-sprites\side\head.png"
       inkscape:export-xdpi="300"
       inkscape:export-ydpi="300" />
    <path
       transform="translate(9.0809373,976.75503)"
       d="m -16.785714,25.116072 a 4.1517859,4.1517859 0 1 1 -8.303572,0 4.1517859,4.1517859 0 1 1 8.303572,0 z"
       sodipodi:ry="4.1517859"
       sodipodi:rx="4.1517859"
       sodipodi:cy="25.116072"
       sodipodi:cx="-20.9375"
       id="path3762"
       style="fill:#ffffff;fill-opacity:1;fill-rule:evenodd;stroke:#000000;stroke-width:1;stroke-linecap:round;stroke-miterlimit:0;stroke-opacity:1;stroke-dasharray:none"
       sodipodi:type="arc"
       inkscape:export-filename="C:\Users\neosam\Documents\programming\ld30prepare\other-files\hero-sprites\head.png"
       inkscape:export-xdpi="300"
       inkscape:export-ydpi="300" />
    <path
       style="fill:none;stroke:#000000;stroke-width:1px;stroke-linecap:butt;stroke-linejoin:miter;stroke-opacity:1"
       d="m 25.425852,1007.926 c 0,0 2.241479,0.675 2.232143,1.6071 -0.0119,1.1882 -2.589286,0.089 -2.589286,0.089"
       id="path3764"
       inkscape:connector-curvature="0"
       sodipodi:nodetypes="csc"
       inkscape:export-filename="C:\Users\neosam\Documents\programming\ld30prepare\other-files\hero-sprites\side\head.png"
       inkscape:export-xdpi="300"
       inkscape:export-ydpi="300" />
    <path
       style="fill:none;stroke:#000000;stroke-width:1px;stroke-linecap:butt;stroke-linejoin:miter;stroke-opacity:1"
       d="m -14.772128,1014.1744 c 0,0 -1.795787,2.796 -2.678573,3.3928 -1.829818,1.2372 -6.160713,1.1608 -6.160713,1.1608"
       id="path3766"
       inkscape:connector-curvature="0"
       sodipodi:nodetypes="csc"
       inkscape:export-filename="C:\Users\neosam\Documents\programming\ld30prepare\other-files\hero-sprites\head.png"
       inkscape:export-xdpi="300"
       inkscape:export-ydpi="300" />
    <path
       style="fill:#ffffff;fill-opacity:1;fill-rule:evenodd;stroke:#000000;stroke-width:1;stroke-linecap:round;stroke-miterlimit:0;stroke-opacity:1"
       d="m 14.584077,1031.4646 c 0.453053,-0.973 3.159186,-1.0716 3.219861,0 0.204627,3.6139 0.330896,6.1089 0,9.9753 -0.09152,1.0694 -3.165561,1.0719 -3.219861,0 -0.141492,-2.7931 -2.035528,-5.6038 0,-9.9753 z"
       id="rect3768"
       inkscape:connector-curvature="0"
       sodipodi:nodetypes="sssss"
       inkscape:export-filename="C:\Users\neosam\Documents\programming\ld30prepare\other-files\hero-sprites\upperleg.png"
       inkscape:export-xdpi="300"
       inkscape:export-ydpi="300" />
    <rect
       style="fill:#ffffff;fill-opacity:1;fill-rule:evenodd;stroke:#000000;stroke-width:1;stroke-linecap:round;stroke-miterlimit:0;stroke-opacity:1;stroke-dasharray:none"
       id="rect3771"
       width="2.4622469"
       height="9.4701805"
       x="14.836615"
       y="1040.1141"
       inkscape:export-filename="C:\Users\neosam\Documents\programming\ld30prepare\other-files\hero-sprites\underleg.png"
       inkscape:export-xdpi="300"
       inkscape:export-ydpi="300" />
    <path
       style="fill:#000000;stroke:#000000;stroke-width:1px;stroke-linecap:butt;stroke-linejoin:miter;stroke-opacity:1;fill-opacity:1"
       d="m 17.614535,61.158946 c 0,0 2.77792,1.641498 2.462247,1.641498 -0.315673,0 -5.997781,0 -5.997781,0 l 0.883884,-2.841054 2.083439,0.189403 z"
       id="path3773"
       inkscape:connector-curvature="0"
       transform="translate(0,988.36218)"
       inkscape:export-filename="C:\Users\neosam\Documents\programming\ld30prepare\other-files\hero-sprites\foot.png"
       inkscape:export-xdpi="300"
       inkscape:export-ydpi="300" />
    <path
       style="fill:#f40000;fill-opacity:1;stroke:#000000;stroke-width:1px;stroke-linecap:butt;stroke-linejoin:miter;stroke-opacity:1"
       d="m 17.5514,1002.2333 1.136422,-5.0507 12.12183,2.52538 -3.788072,-2.65165 3.409265,-7.95495 -6.944799,3.91434 -9.091372,-7.44988 -5.4295701,6.69226 -9.72271796,-4.54568 4.04060996,8.08122 -4.16687896,-3.40927 2.77791896,7.82863 -3.788072,11.4905 4.924494,-1.2627 -1.136422,11.1117 2.651651,-16.5413 2.777919,11.4905 2.146574,-15.4048 z"
       id="path3775"
       inkscape:connector-curvature="0"
       inkscape:export-filename="C:\Users\neosam\Documents\programming\ld30prepare\other-files\hero-sprites\side\head.png"
       inkscape:export-xdpi="300"
       inkscape:export-ydpi="300" />
    <path
       sodipodi:type="arc"
       style="fill:#f40000;fill-opacity:1;fill-rule:evenodd;stroke:#000000;stroke-width:1;stroke-linecap:round;stroke-miterlimit:0;stroke-opacity:1;stroke-dasharray:none"
       id="path3777"
       sodipodi:cx="19.441965"
       sodipodi:cy="19.736607"
       sodipodi:rx="0.69196427"
       sodipodi:ry="0.69196427"
       d="m 20.133929,19.736607 a 0.69196427,0.69196427 0 1 1 -1.383928,0 0.69196427,0.69196427 0 1 1 1.383928,0 z"
       transform="translate(5.7254372,985.01922)"
       inkscape:export-filename="C:\Users\neosam\Documents\programming\ld30prepare\other-files\hero-sprites\side\head.png"
       inkscape:export-xdpi="300"
       inkscape:export-ydpi="300" />
    <path
       transform="translate(-29.251095,983.12518)"
       d="m 20.133929,19.736607 a 0.69196427,0.69196427 0 1 1 -1.383928,0 0.69196427,0.69196427 0 1 1 1.383928,0 z"
       sodipodi:ry="0.69196427"
       sodipodi:rx="0.69196427"
       sodipodi:cy="19.736607"
       sodipodi:cx="19.441965"
       id="path3781"
       style="fill:#f40000;fill-opacity:1;fill-rule:evenodd;stroke:#000000;stroke-width:1;stroke-linecap:round;stroke-miterlimit:0;stroke-opacity:1;stroke-dasharray:none"
       sodipodi:type="arc"
       inkscape:export-filename="C:\Users\neosam\Documents\programming\ld30prepare\other-files\hero-sprites\head.png"
       inkscape:export-xdpi="300"
       inkscape:export-ydpi="300" />
    <rect
       style="fill:#f40000;fill-opacity:1;fill-rule:evenodd;stroke:#000000;stroke-width:1;stroke-linecap:round;stroke-miterlimit:0;stroke-opacity:1;stroke-dasharray:none"
       id="rect3783"
       width="3.2829957"
       height="8.586297"
       x="14.773481"
       y="29.654814"
       transform="translate(0,988.36218)"
       inkscape:export-filename="C:\Users\neosam\Documents\programming\ld30prepare\other-files\hero-sprites\upperarm.png"
       inkscape:export-xdpi="300"
       inkscape:export-ydpi="300" />
    <rect
       style="fill:#f40000;fill-opacity:1;fill-rule:evenodd;stroke:#000000;stroke-width:1;stroke-linecap:round;stroke-miterlimit:0;stroke-opacity:1;stroke-dasharray:none"
       id="rect3785"
       width="2.6516504"
       height="8.7125654"
       x="15.278557"
       y="37.736034"
       transform="translate(0,988.36218)"
       inkscape:export-filename="C:\Users\neosam\Documents\programming\ld30prepare\other-files\hero-sprites\lowerarm.png"
       inkscape:export-xdpi="300"
       inkscape:export-ydpi="300" />
    <path
       sodipodi:type="arc"
       style="fill:#e19e00;fill-opacity:1;fill-rule:evenodd;stroke:#000000;stroke-width:1;stroke-linecap:round;stroke-miterlimit:0;stroke-opacity:1;stroke-dasharray:none"
       id="path3787"
       sodipodi:cx="16.983191"
       sodipodi:cy="47.774426"
       sodipodi:rx="1.3258252"
       sodipodi:ry="1.7046324"
       d="m 18.309016,47.774426 a 1.3258252,1.7046324 0 1 1 -2.651651,0 1.3258252,1.7046324 0 1 1 2.651651,0 z"
       transform="translate(0,988.36218)"
       inkscape:export-filename="C:\Users\neosam\Documents\programming\ld30prepare\other-files\hero-sprites\hand.png"
       inkscape:export-xdpi="300"
       inkscape:export-ydpi="300" />
    <path
       style="fill:none;stroke:#000000;stroke-width:1px;stroke-linecap:butt;stroke-linejoin:miter;stroke-opacity:1"
       d="m 18.182746,22.583746 c 0,0 1.223474,1.732041 2.146574,2.146574 0.653859,0.293626 2.146574,0.126269 2.146574,0.126269"
       id="path3789"
       inkscape:connector-curvature="0"
       transform="translate(0,988.36218)"
       sodipodi:nodetypes="csc"
       inkscape:export-filename="C:\Users\neosam\Documents\programming\ld30prepare\other-files\hero-sprites\side\head.png"
       inkscape:export-xdpi="300"
       inkscape:export-ydpi="300" />
  </g>
</svg>
